<?xml version="1.0" encoding="UTF-8"?>
<!DOCTYPE svg PUBLIC "-//W3C//DTD SVG 1.1//EN" "http://www.w3.org/Graphics/SVG/1.1/DTD/svg11.dtd">
<svg xmlns="http://www.w3.org/2000/svg" version="1.1" width="25px" height="9px" style="shape-rendering:geometricPrecision; text-rendering:geometricPrecision; image-rendering:optimizeQuality; fill-rule:evenodd; clip-rule:evenodd" xmlns:xlink="http://www.w3.org/1999/xlink">
<g><path style="opacity:1" fill="#cecece" d="M 18.5,-0.5 C 18.8333,-0.5 19.1667,-0.5 19.5,-0.5C 20.5794,1.54297 22.246,2.8763 24.5,3.5C 24.5,3.83333 24.5,4.16667 24.5,4.5C 22.8333,5.5 21.5,6.83333 20.5,8.5C 19.8333,8.5 19.1667,8.5 18.5,8.5C 18.4142,7.5041 18.7476,6.67076 19.5,6C 12.8417,5.50042 6.17499,5.33375 -0.5,5.5C -0.5,4.83333 -0.5,4.16667 -0.5,3.5C 6.19979,3.83002 12.8665,3.49669 19.5,2.5C 18.8728,1.58317 18.5394,0.583168 18.5,-0.5 Z"/></g>
</svg>
